<mxfile host="Electron" agent="Mozilla/5.0 (Windows NT 10.0; Win64; x64) AppleWebKit/537.36 (KHTML, like Gecko) draw.io/24.7.8 Chrome/128.0.6613.36 Electron/32.0.1 Safari/537.36" version="24.7.8" pages="3">
  <diagram name="System" id="c2iEev-Jstg_Icvi2VbT">
    <mxGraphModel dx="1434" dy="844" grid="1" gridSize="10" guides="1" tooltips="1" connect="1" arrows="1" fold="1" page="1" pageScale="1" pageWidth="1169" pageHeight="827" math="0" shadow="0">
      <root>
        <mxCell id="0" />
        <mxCell id="1" parent="0" />
        <mxCell id="lPVegLePywHtXsEGlFOO-2" value="&lt;div style=&quot;margin-top: 0pt; margin-bottom: 0pt; text-indent: -0.38in; font-size: 15px;&quot; class=&quot;O0&quot;&gt;&lt;span style=&quot;font-size: 15px; font-weight: bold;&quot;&gt;NUCLEO-G0B1RE&lt;/span&gt;&lt;/div&gt;" style="rounded=0;whiteSpace=wrap;html=1;strokeWidth=2;align=center;horizontal=1;verticalAlign=top;fontSize=15;labelBackgroundColor=none;fontFamily=Calibri;fillColor=#ffe6cc;strokeColor=#d79b00;" parent="1" vertex="1">
          <mxGeometry x="354" y="120" width="679" height="420" as="geometry" />
        </mxCell>
        <mxCell id="lPVegLePywHtXsEGlFOO-3" value="&lt;div class=&quot;O0&quot; style=&quot;margin-top: 0pt; margin-bottom: 0pt; text-indent: -0.38in; font-size: 15px;&quot;&gt;&lt;div class=&quot;O0&quot; style=&quot;margin-top: 0pt; margin-bottom: 0pt; text-indent: -0.38in; font-size: 15px;&quot;&gt;&lt;span style=&quot;font-size: 15px; font-weight: bold;&quot;&gt;STM32G0B1RE&lt;/span&gt;&lt;/div&gt;&lt;/div&gt;" style="rounded=0;whiteSpace=wrap;html=1;strokeWidth=2;align=center;horizontal=1;verticalAlign=top;fontSize=15;labelBackgroundColor=none;fontFamily=Calibri;fillColor=#dae8fc;strokeColor=#6c8ebf;" parent="1" vertex="1">
          <mxGeometry x="765.5" y="155" width="216" height="350" as="geometry" />
        </mxCell>
        <mxCell id="lPVegLePywHtXsEGlFOO-5" value="UART" style="rounded=0;whiteSpace=wrap;html=1;align=center;verticalAlign=middle;fontFamily=Calibri;fontStyle=1;fillColor=#ffff88;strokeColor=#36393d;" parent="1" vertex="1">
          <mxGeometry x="725.5" y="453" width="60" height="39" as="geometry" />
        </mxCell>
        <mxCell id="lPVegLePywHtXsEGlFOO-10" value="ST-Link" style="rounded=0;whiteSpace=wrap;html=1;fontFamily=Calibri;fontStyle=1;verticalAlign=bottom;fillColor=#d5e8d4;strokeColor=#82b366;" parent="1" vertex="1">
          <mxGeometry x="413.5" y="441.6" width="100" height="61.8" as="geometry" />
        </mxCell>
        <mxCell id="lPVegLePywHtXsEGlFOO-18" value="Digital Input" style="endArrow=blockThin;startArrow=none;html=1;rounded=0;entryX=0;entryY=0.5;entryDx=0;entryDy=0;exitX=1;exitY=0.5;exitDx=0;exitDy=0;strokeWidth=1;startFill=0;endFill=1;fontFamily=Calibri;" parent="1" source="lPVegLePywHtXsEGlFOO-27" target="lPVegLePywHtXsEGlFOO-29" edge="1">
          <mxGeometry width="50" height="50" relative="1" as="geometry">
            <mxPoint x="-13" y="580" as="sourcePoint" />
            <mxPoint x="127" y="580" as="targetPoint" />
          </mxGeometry>
        </mxCell>
        <mxCell id="lPVegLePywHtXsEGlFOO-19" value="PWM Output" style="endArrow=blockThin;startArrow=none;html=1;rounded=0;entryX=1;entryY=0.5;entryDx=0;entryDy=0;exitX=0;exitY=0.5;exitDx=0;exitDy=0;strokeWidth=1;startFill=0;endFill=1;fontFamily=Calibri;" parent="1" source="lPVegLePywHtXsEGlFOO-30" target="lPVegLePywHtXsEGlFOO-28" edge="1">
          <mxGeometry width="50" height="50" relative="1" as="geometry">
            <mxPoint x="127" y="627" as="sourcePoint" />
            <mxPoint x="-13" y="627" as="targetPoint" />
          </mxGeometry>
        </mxCell>
        <mxCell id="lPVegLePywHtXsEGlFOO-22" value="Software Feature" style="rounded=0;whiteSpace=wrap;html=1;horizontal=1;verticalAlign=top;flipV=0;fontFamily=Calibri;fontStyle=1;fillColor=#f8cecc;strokeColor=#b85450;" parent="1" vertex="1">
          <mxGeometry x="803.5" y="200.5" width="159.5" height="247" as="geometry" />
        </mxCell>
        <mxCell id="lPVegLePywHtXsEGlFOO-23" value="Chattering&lt;div&gt;Prevention&lt;/div&gt;" style="rounded=0;whiteSpace=wrap;html=1;flipV=0;fontFamily=Calibri;fontStyle=1;fillColor=#e1d5e7;strokeColor=#9673a6;" parent="1" vertex="1">
          <mxGeometry x="823.25" y="240.5" width="120" height="62" as="geometry" />
        </mxCell>
        <mxCell id="lPVegLePywHtXsEGlFOO-24" value="LED State Control&lt;div&gt;PWM Control&lt;/div&gt;" style="rounded=0;whiteSpace=wrap;html=1;verticalAlign=middle;flipV=0;fontFamily=Calibri;fontStyle=1;fillColor=#e1d5e7;strokeColor=#9673a6;" parent="1" vertex="1">
          <mxGeometry x="823.25" y="351.5" width="120" height="62" as="geometry" />
        </mxCell>
        <mxCell id="lPVegLePywHtXsEGlFOO-25" value="Button Event" style="endArrow=blockThin;startArrow=none;html=1;rounded=0;exitX=0.5;exitY=1;exitDx=0;exitDy=0;strokeWidth=1;startFill=0;endFill=1;fontFamily=Calibri;labelBorderColor=none;labelBackgroundColor=none;" parent="1" source="lPVegLePywHtXsEGlFOO-23" target="lPVegLePywHtXsEGlFOO-24" edge="1">
          <mxGeometry width="50" height="50" relative="1" as="geometry">
            <mxPoint x="678" y="330.5" as="sourcePoint" />
            <mxPoint x="538" y="330.5" as="targetPoint" />
          </mxGeometry>
        </mxCell>
        <mxCell id="lPVegLePywHtXsEGlFOO-27" value="Button" style="rounded=0;whiteSpace=wrap;html=1;fontFamily=Calibri;fontStyle=1;verticalAlign=bottom;fillColor=#d5e8d4;strokeColor=#82b366;" parent="1" vertex="1">
          <mxGeometry x="413.5" y="240.5" width="100" height="61.8" as="geometry" />
        </mxCell>
        <mxCell id="lPVegLePywHtXsEGlFOO-28" value="LED" style="rounded=0;whiteSpace=wrap;html=1;fontFamily=Calibri;fontStyle=1;verticalAlign=bottom;fillColor=#d5e8d4;strokeColor=#82b366;" parent="1" vertex="1">
          <mxGeometry x="413.5" y="351.6" width="100" height="61.8" as="geometry" />
        </mxCell>
        <mxCell id="lPVegLePywHtXsEGlFOO-29" value="GPIO" style="rounded=0;whiteSpace=wrap;html=1;align=center;verticalAlign=middle;fontFamily=Calibri;fontStyle=1;fillColor=#ffff88;strokeColor=#36393d;" parent="1" vertex="1">
          <mxGeometry x="725.5" y="253" width="60" height="37" as="geometry" />
        </mxCell>
        <mxCell id="lPVegLePywHtXsEGlFOO-30" value="Timer" style="rounded=0;whiteSpace=wrap;html=1;align=center;verticalAlign=middle;fontFamily=Calibri;fontStyle=1;fillColor=#ffff88;strokeColor=#36393d;" parent="1" vertex="1">
          <mxGeometry x="725.5" y="364" width="60" height="37" as="geometry" />
        </mxCell>
        <mxCell id="lPVegLePywHtXsEGlFOO-31" value="State[LED, Button] / Log" style="endArrow=blockThin;startArrow=none;html=1;rounded=0;entryX=1;entryY=0.5;entryDx=0;entryDy=0;exitX=0;exitY=0.5;exitDx=0;exitDy=0;strokeWidth=1;startFill=0;endFill=1;fontFamily=Calibri;" parent="1" source="lPVegLePywHtXsEGlFOO-5" target="lPVegLePywHtXsEGlFOO-10" edge="1">
          <mxGeometry width="50" height="50" relative="1" as="geometry">
            <mxPoint x="700.5" y="253.89999999999998" as="sourcePoint" />
            <mxPoint x="543" y="236.89999999999998" as="targetPoint" />
          </mxGeometry>
        </mxCell>
        <mxCell id="lPVegLePywHtXsEGlFOO-32" value="" style="endArrow=blockThin;startArrow=none;html=1;rounded=0;entryX=1;entryY=0.5;entryDx=0;entryDy=0;exitX=0.475;exitY=0.996;exitDx=0;exitDy=0;strokeWidth=1;startFill=0;endFill=1;fontFamily=Calibri;edgeStyle=orthogonalEdgeStyle;exitPerimeter=0;" parent="1" source="lPVegLePywHtXsEGlFOO-22" target="lPVegLePywHtXsEGlFOO-5" edge="1">
          <mxGeometry width="50" height="50" relative="1" as="geometry">
            <mxPoint x="735.5" y="256" as="sourcePoint" />
            <mxPoint x="555.5" y="255" as="targetPoint" />
          </mxGeometry>
        </mxCell>
        <mxCell id="lPVegLePywHtXsEGlFOO-35" value="LED Request [optional]" style="endArrow=blockThin;startArrow=none;html=1;rounded=0;entryX=0.75;entryY=1;entryDx=0;entryDy=0;exitX=0.5;exitY=1;exitDx=0;exitDy=0;strokeWidth=1;startFill=0;endFill=1;fontFamily=Calibri;edgeStyle=orthogonalEdgeStyle;" parent="1" source="lPVegLePywHtXsEGlFOO-10" target="lPVegLePywHtXsEGlFOO-24" edge="1">
          <mxGeometry width="50" height="50" relative="1" as="geometry">
            <mxPoint x="746" y="483" as="sourcePoint" />
            <mxPoint x="576" y="483" as="targetPoint" />
            <Array as="points">
              <mxPoint x="516" y="524" />
              <mxPoint x="924" y="524" />
            </Array>
          </mxGeometry>
        </mxCell>
        <mxCell id="lPVegLePywHtXsEGlFOO-38" value="&lt;span style=&quot;font-size: 11px; text-wrap: nowrap; background-color: rgb(255, 255, 255);&quot;&gt;LED Request [optional]&lt;/span&gt;" style="text;html=1;align=center;verticalAlign=middle;whiteSpace=wrap;rounded=0;fontFamily=Calibri;" parent="1" vertex="1">
          <mxGeometry x="264" y="447.5" width="60" height="30" as="geometry" />
        </mxCell>
        <mxCell id="lPVegLePywHtXsEGlFOO-39" value="" style="fontColor=#0066CC;verticalAlign=top;verticalLabelPosition=bottom;labelPosition=center;align=center;html=1;outlineConnect=0;fillColor=#CCCCCC;strokeColor=#6881B3;gradientColor=none;gradientDirection=north;strokeWidth=2;shape=mxgraph.networks.pc;fontFamily=Calibri;" parent="1" vertex="1">
          <mxGeometry x="138" y="437.5" width="100" height="70" as="geometry" />
        </mxCell>
        <mxCell id="lPVegLePywHtXsEGlFOO-40" value="State[LED, Button] / Log" style="endArrow=blockThin;startArrow=blockThin;html=1;rounded=0;entryX=1;entryY=0.5;entryDx=0;entryDy=0;strokeWidth=1;startFill=1;endFill=1;fontFamily=Calibri;entryPerimeter=0;" parent="1" source="lPVegLePywHtXsEGlFOO-10" target="lPVegLePywHtXsEGlFOO-39" edge="1">
          <mxGeometry x="-0.3333" y="11" width="50" height="50" relative="1" as="geometry">
            <mxPoint x="746" y="483" as="sourcePoint" />
            <mxPoint x="576" y="483" as="targetPoint" />
            <mxPoint as="offset" />
          </mxGeometry>
        </mxCell>
        <mxCell id="lPVegLePywHtXsEGlFOO-41" value="RS232C" style="text;html=1;align=center;verticalAlign=middle;whiteSpace=wrap;rounded=0;fontFamily=Calibri;fontStyle=1;fontSize=20;" parent="1" vertex="1">
          <mxGeometry x="280" y="492" width="60" height="30" as="geometry" />
        </mxCell>
        <mxCell id="lPVegLePywHtXsEGlFOO-42" value="" style="endArrow=blockThin;startArrow=none;html=1;rounded=0;entryX=0;entryY=0.5;entryDx=0;entryDy=0;exitX=1;exitY=0.5;exitDx=0;exitDy=0;strokeWidth=1;startFill=0;endFill=1;fontFamily=Calibri;" parent="1" source="lPVegLePywHtXsEGlFOO-29" target="lPVegLePywHtXsEGlFOO-23" edge="1">
          <mxGeometry width="50" height="50" relative="1" as="geometry">
            <mxPoint x="565.5" y="282" as="sourcePoint" />
            <mxPoint x="735.5" y="282" as="targetPoint" />
          </mxGeometry>
        </mxCell>
        <mxCell id="lPVegLePywHtXsEGlFOO-43" value="" style="endArrow=blockThin;startArrow=none;html=1;rounded=0;entryX=1;entryY=0.5;entryDx=0;entryDy=0;exitX=0;exitY=0.5;exitDx=0;exitDy=0;strokeWidth=1;startFill=0;endFill=1;fontFamily=Calibri;" parent="1" source="lPVegLePywHtXsEGlFOO-24" target="lPVegLePywHtXsEGlFOO-30" edge="1">
          <mxGeometry width="50" height="50" relative="1" as="geometry">
            <mxPoint x="795.5" y="279" as="sourcePoint" />
            <mxPoint x="836.5" y="279" as="targetPoint" />
          </mxGeometry>
        </mxCell>
        <mxCell id="Dhf1BJ36f9NFJUOVtASJ-2" value="" style="html=1;shape=mxgraph.electrical.electro-mechanical.pushbutton;aspect=fixed;elSwitchState=off;" parent="1" vertex="1">
          <mxGeometry x="434.75" y="263.73999999999995" width="57.51" height="15.33" as="geometry" />
        </mxCell>
        <mxCell id="Dhf1BJ36f9NFJUOVtASJ-3" value="" style="verticalLabelPosition=bottom;shadow=0;dashed=0;align=center;html=1;verticalAlign=top;shape=mxgraph.electrical.opto_electronics.led_2;pointerEvents=1;direction=west;" parent="1" vertex="1">
          <mxGeometry x="443.5" y="372.5" width="40" height="20" as="geometry" />
        </mxCell>
        <mxCell id="Dhf1BJ36f9NFJUOVtASJ-4" value="" style="pointerEvents=1;shadow=0;dashed=0;html=1;strokeColor=none;fillColor=#4495D1;labelPosition=center;verticalLabelPosition=bottom;verticalAlign=top;align=center;outlineConnect=0;shape=mxgraph.veeam.cpu;" parent="1" vertex="1">
          <mxGeometry x="447.5" y="459.25" width="32" height="26.5" as="geometry" />
        </mxCell>
      </root>
    </mxGraphModel>
  </diagram>
  <diagram id="85vmkdSVd0FV-_d-D5eU" name="Software_Gsl">
    <mxGraphModel dx="1434" dy="844" grid="1" gridSize="10" guides="1" tooltips="1" connect="1" arrows="1" fold="1" page="1" pageScale="1" pageWidth="1169" pageHeight="827" math="0" shadow="0">
      <root>
        <mxCell id="0" />
        <mxCell id="1" parent="0" />
        <mxCell id="AKqEPxBZ5IikTeIq36ND-24" value="Driver" style="rounded=0;whiteSpace=wrap;html=1;fillColor=#dae8fc;strokeColor=#6c8ebf;verticalAlign=top;fontFamily=Calibri;fontSize=14;fontStyle=5" parent="1" vertex="1">
          <mxGeometry x="240" y="287" width="540" height="84" as="geometry" />
        </mxCell>
        <mxCell id="AKqEPxBZ5IikTeIq36ND-25" value="GPIO" style="rounded=0;whiteSpace=wrap;html=1;fillColor=#dae8fc;strokeColor=#6c8ebf;verticalAlign=middle;fontFamily=Calibri;fontSize=14;fontStyle=1" parent="1" vertex="1">
          <mxGeometry x="255" y="315" width="130" height="42" as="geometry" />
        </mxCell>
        <mxCell id="AKqEPxBZ5IikTeIq36ND-26" value="Timer" style="rounded=0;whiteSpace=wrap;html=1;fillColor=#dae8fc;strokeColor=#6c8ebf;verticalAlign=middle;fontFamily=Calibri;fontSize=14;fontStyle=1" parent="1" vertex="1">
          <mxGeometry x="445" y="315" width="130" height="42" as="geometry" />
        </mxCell>
        <mxCell id="AKqEPxBZ5IikTeIq36ND-27" value="UART" style="rounded=0;whiteSpace=wrap;html=1;fillColor=#dae8fc;strokeColor=#6c8ebf;verticalAlign=middle;fontFamily=Calibri;fontSize=14;fontStyle=1" parent="1" vertex="1">
          <mxGeometry x="635" y="315" width="130" height="42" as="geometry" />
        </mxCell>
        <mxCell id="AKqEPxBZ5IikTeIq36ND-31" value="&lt;div&gt;Gsl&lt;br&gt;&lt;/div&gt;[Static Library]" style="rounded=0;whiteSpace=wrap;html=1;flipV=0;fontFamily=Calibri;fontStyle=5;fillColor=#e1d5e7;strokeColor=#9673a6;verticalAlign=top;fontSize=14;" parent="1" vertex="1">
          <mxGeometry x="40" y="40" width="120" height="194" as="geometry" />
        </mxCell>
        <mxCell id="AKqEPxBZ5IikTeIq36ND-32" value="Button&lt;div&gt;Manager&lt;/div&gt;" style="rounded=0;whiteSpace=wrap;html=1;flipV=0;fontFamily=Calibri;fontStyle=1;fillColor=#e1d5e7;strokeColor=#9673a6;fontSize=14;" parent="1" vertex="1">
          <mxGeometry x="67.5" y="100" width="65" height="42" as="geometry" />
        </mxCell>
        <mxCell id="AKqEPxBZ5IikTeIq36ND-33" value="LED&lt;div style=&quot;font-size: 14px;&quot;&gt;Manager&lt;/div&gt;" style="rounded=0;whiteSpace=wrap;html=1;flipV=0;fontFamily=Calibri;fontStyle=1;fillColor=#e1d5e7;strokeColor=#9673a6;fontSize=14;" parent="1" vertex="1">
          <mxGeometry x="67.5" y="160" width="65" height="42" as="geometry" />
        </mxCell>
        <mxCell id="AKqEPxBZ5IikTeIq36ND-40" value="Middleware" style="rounded=0;whiteSpace=wrap;html=1;fillColor=#f8cecc;strokeColor=#b85450;verticalAlign=top;fontFamily=Calibri;fontSize=14;fontStyle=5" parent="1" vertex="1">
          <mxGeometry x="240" y="190" width="540" height="84" as="geometry" />
        </mxCell>
        <mxCell id="AKqEPxBZ5IikTeIq36ND-41" value="HAL" style="rounded=0;whiteSpace=wrap;html=1;horizontal=1;verticalAlign=middle;flipV=0;fontFamily=Calibri;fontStyle=1;fillColor=#f8cecc;strokeColor=#b85450;fontSize=14;" parent="1" vertex="1">
          <mxGeometry x="255" y="216" width="250" height="45" as="geometry" />
        </mxCell>
        <mxCell id="AKqEPxBZ5IikTeIq36ND-42" value="FreeRTOS" style="rounded=0;whiteSpace=wrap;html=1;horizontal=1;verticalAlign=middle;flipV=0;fontFamily=Calibri;fontStyle=1;fillColor=#f8cecc;strokeColor=#b85450;fontSize=14;" parent="1" vertex="1">
          <mxGeometry x="515" y="216" width="250" height="45" as="geometry" />
        </mxCell>
        <mxCell id="AKqEPxBZ5IikTeIq36ND-43" value="Application" style="rounded=0;whiteSpace=wrap;html=1;fillColor=#e1d5e7;strokeColor=#9673a6;verticalAlign=top;fontFamily=Calibri;fontSize=14;fontStyle=5" parent="1" vertex="1">
          <mxGeometry x="240" y="40" width="540" height="140" as="geometry" />
        </mxCell>
        <mxCell id="AKqEPxBZ5IikTeIq36ND-44" value="Service [ISR, 1ms]" style="rounded=0;whiteSpace=wrap;html=1;flipV=0;fontFamily=Calibri;fontStyle=1;fillColor=#e1d5e7;strokeColor=#9673a6;verticalAlign=top;fontSize=14;" parent="1" vertex="1">
          <mxGeometry x="255" y="70" width="250" height="90" as="geometry" />
        </mxCell>
        <mxCell id="AKqEPxBZ5IikTeIq36ND-45" value="Button&lt;div style=&quot;font-size: 14px;&quot;&gt;Service&lt;/div&gt;" style="rounded=0;whiteSpace=wrap;html=1;flipV=0;fontFamily=Calibri;fontStyle=1;fillColor=#e1d5e7;strokeColor=#9673a6;fontSize=14;" parent="1" vertex="1">
          <mxGeometry x="272.5" y="99" width="65" height="42" as="geometry" />
        </mxCell>
        <mxCell id="AKqEPxBZ5IikTeIq36ND-46" value="LED&lt;div style=&quot;font-size: 14px;&quot;&gt;Service&lt;/div&gt;" style="rounded=0;whiteSpace=wrap;html=1;flipV=0;fontFamily=Calibri;fontStyle=1;fillColor=#e1d5e7;strokeColor=#9673a6;fontSize=14;" parent="1" vertex="1">
          <mxGeometry x="350" y="99" width="65" height="42" as="geometry" />
        </mxCell>
        <mxCell id="AKqEPxBZ5IikTeIq36ND-47" value="Callback" style="rounded=0;whiteSpace=wrap;html=1;flipV=0;fontFamily=Calibri;fontStyle=1;fillColor=#e1d5e7;strokeColor=#9673a6;fontSize=14;dashed=1;" parent="1" vertex="1">
          <mxGeometry x="425" y="99" width="65" height="42" as="geometry" />
        </mxCell>
        <mxCell id="AKqEPxBZ5IikTeIq36ND-48" value="Task" style="rounded=0;whiteSpace=wrap;html=1;flipV=0;fontFamily=Calibri;fontStyle=1;fillColor=#e1d5e7;strokeColor=#9673a6;verticalAlign=top;fontSize=14;" parent="1" vertex="1">
          <mxGeometry x="515" y="70" width="250" height="90" as="geometry" />
        </mxCell>
        <mxCell id="AKqEPxBZ5IikTeIq36ND-49" value="Button&lt;div style=&quot;font-size: 14px;&quot;&gt;Task&lt;/div&gt;" style="rounded=0;whiteSpace=wrap;html=1;flipV=0;fontFamily=Calibri;fontStyle=1;fillColor=#e1d5e7;strokeColor=#9673a6;fontSize=14;" parent="1" vertex="1">
          <mxGeometry x="532.5" y="99" width="65" height="42" as="geometry" />
        </mxCell>
        <mxCell id="AKqEPxBZ5IikTeIq36ND-50" value="LED&lt;div style=&quot;font-size: 14px;&quot;&gt;Task&lt;/div&gt;" style="rounded=0;whiteSpace=wrap;html=1;flipV=0;fontFamily=Calibri;fontStyle=1;fillColor=#e1d5e7;strokeColor=#9673a6;fontSize=14;" parent="1" vertex="1">
          <mxGeometry x="610" y="99" width="65" height="42" as="geometry" />
        </mxCell>
        <mxCell id="AKqEPxBZ5IikTeIq36ND-51" value="SWD&lt;div style=&quot;font-size: 14px;&quot;&gt;Task&lt;/div&gt;" style="rounded=0;whiteSpace=wrap;html=1;flipV=0;fontFamily=Calibri;fontStyle=1;fillColor=#e1d5e7;strokeColor=#9673a6;fontSize=14;" parent="1" vertex="1">
          <mxGeometry x="685" y="99" width="65" height="42" as="geometry" />
        </mxCell>
        <mxCell id="AKqEPxBZ5IikTeIq36ND-52" value="" style="shape=doubleArrow;whiteSpace=wrap;html=1;arrowWidth=0.4965517241379274;arrowSize=0.3741379310344816;" parent="1" vertex="1">
          <mxGeometry x="170" y="100" width="60" height="40" as="geometry" />
        </mxCell>
      </root>
    </mxGraphModel>
  </diagram>
  <diagram name="Software" id="LWm0pybTjaTIlLT1HPGq">
    <mxGraphModel dx="1434" dy="844" grid="1" gridSize="10" guides="1" tooltips="1" connect="1" arrows="1" fold="1" page="1" pageScale="1" pageWidth="1169" pageHeight="827" math="0" shadow="0">
      <root>
        <mxCell id="9KhxK2Ew6nsZcRuOPk-c-0" />
        <mxCell id="9KhxK2Ew6nsZcRuOPk-c-1" parent="9KhxK2Ew6nsZcRuOPk-c-0" />
        <mxCell id="9KhxK2Ew6nsZcRuOPk-c-2" value="Driver" style="rounded=0;whiteSpace=wrap;html=1;fillColor=#dae8fc;strokeColor=#6c8ebf;verticalAlign=top;fontFamily=Calibri;fontSize=14;fontStyle=5" vertex="1" parent="9KhxK2Ew6nsZcRuOPk-c-1">
          <mxGeometry x="40" y="287" width="540" height="84" as="geometry" />
        </mxCell>
        <mxCell id="9KhxK2Ew6nsZcRuOPk-c-3" value="GPIO" style="rounded=0;whiteSpace=wrap;html=1;fillColor=#dae8fc;strokeColor=#6c8ebf;verticalAlign=middle;fontFamily=Calibri;fontSize=14;fontStyle=1" vertex="1" parent="9KhxK2Ew6nsZcRuOPk-c-1">
          <mxGeometry x="55" y="315" width="130" height="42" as="geometry" />
        </mxCell>
        <mxCell id="9KhxK2Ew6nsZcRuOPk-c-4" value="Timer" style="rounded=0;whiteSpace=wrap;html=1;fillColor=#dae8fc;strokeColor=#6c8ebf;verticalAlign=middle;fontFamily=Calibri;fontSize=14;fontStyle=1" vertex="1" parent="9KhxK2Ew6nsZcRuOPk-c-1">
          <mxGeometry x="245" y="315" width="130" height="42" as="geometry" />
        </mxCell>
        <mxCell id="9KhxK2Ew6nsZcRuOPk-c-5" value="UART" style="rounded=0;whiteSpace=wrap;html=1;fillColor=#dae8fc;strokeColor=#6c8ebf;verticalAlign=middle;fontFamily=Calibri;fontSize=14;fontStyle=1" vertex="1" parent="9KhxK2Ew6nsZcRuOPk-c-1">
          <mxGeometry x="435" y="315" width="130" height="42" as="geometry" />
        </mxCell>
        <mxCell id="9KhxK2Ew6nsZcRuOPk-c-9" value="Middleware" style="rounded=0;whiteSpace=wrap;html=1;fillColor=#f8cecc;strokeColor=#b85450;verticalAlign=top;fontFamily=Calibri;fontSize=14;fontStyle=5" vertex="1" parent="9KhxK2Ew6nsZcRuOPk-c-1">
          <mxGeometry x="40" y="190" width="540" height="84" as="geometry" />
        </mxCell>
        <mxCell id="9KhxK2Ew6nsZcRuOPk-c-10" value="HAL" style="rounded=0;whiteSpace=wrap;html=1;horizontal=1;verticalAlign=middle;flipV=0;fontFamily=Calibri;fontStyle=1;fillColor=#f8cecc;strokeColor=#b85450;fontSize=14;" vertex="1" parent="9KhxK2Ew6nsZcRuOPk-c-1">
          <mxGeometry x="55" y="216" width="250" height="45" as="geometry" />
        </mxCell>
        <mxCell id="9KhxK2Ew6nsZcRuOPk-c-11" value="FreeRTOS" style="rounded=0;whiteSpace=wrap;html=1;horizontal=1;verticalAlign=middle;flipV=0;fontFamily=Calibri;fontStyle=1;fillColor=#f8cecc;strokeColor=#b85450;fontSize=14;" vertex="1" parent="9KhxK2Ew6nsZcRuOPk-c-1">
          <mxGeometry x="315" y="216" width="250" height="45" as="geometry" />
        </mxCell>
        <mxCell id="9KhxK2Ew6nsZcRuOPk-c-12" value="Application" style="rounded=0;whiteSpace=wrap;html=1;fillColor=#e1d5e7;strokeColor=#9673a6;verticalAlign=top;fontFamily=Calibri;fontSize=14;fontStyle=5" vertex="1" parent="9KhxK2Ew6nsZcRuOPk-c-1">
          <mxGeometry x="40" y="40" width="540" height="140" as="geometry" />
        </mxCell>
        <mxCell id="9KhxK2Ew6nsZcRuOPk-c-13" value="Service [ISR, 1ms]" style="rounded=0;whiteSpace=wrap;html=1;flipV=0;fontFamily=Calibri;fontStyle=1;fillColor=#e1d5e7;strokeColor=#9673a6;verticalAlign=top;fontSize=14;" vertex="1" parent="9KhxK2Ew6nsZcRuOPk-c-1">
          <mxGeometry x="55" y="70" width="250" height="90" as="geometry" />
        </mxCell>
        <mxCell id="9KhxK2Ew6nsZcRuOPk-c-14" value="Button&lt;div style=&quot;font-size: 14px;&quot;&gt;Service&lt;/div&gt;" style="rounded=0;whiteSpace=wrap;html=1;flipV=0;fontFamily=Calibri;fontStyle=1;fillColor=#e1d5e7;strokeColor=#9673a6;fontSize=14;" vertex="1" parent="9KhxK2Ew6nsZcRuOPk-c-1">
          <mxGeometry x="70" y="99" width="100" height="42" as="geometry" />
        </mxCell>
        <mxCell id="9KhxK2Ew6nsZcRuOPk-c-15" value="LED&lt;div style=&quot;font-size: 14px;&quot;&gt;Service&lt;/div&gt;" style="rounded=0;whiteSpace=wrap;html=1;flipV=0;fontFamily=Calibri;fontStyle=1;fillColor=#e1d5e7;strokeColor=#9673a6;fontSize=14;" vertex="1" parent="9KhxK2Ew6nsZcRuOPk-c-1">
          <mxGeometry x="190" y="99" width="100" height="42" as="geometry" />
        </mxCell>
        <mxCell id="9KhxK2Ew6nsZcRuOPk-c-17" value="Task" style="rounded=0;whiteSpace=wrap;html=1;flipV=0;fontFamily=Calibri;fontStyle=1;fillColor=#e1d5e7;strokeColor=#9673a6;verticalAlign=top;fontSize=14;" vertex="1" parent="9KhxK2Ew6nsZcRuOPk-c-1">
          <mxGeometry x="315" y="70" width="250" height="90" as="geometry" />
        </mxCell>
        <mxCell id="9KhxK2Ew6nsZcRuOPk-c-18" value="Button&lt;div style=&quot;font-size: 14px;&quot;&gt;Task&lt;/div&gt;" style="rounded=0;whiteSpace=wrap;html=1;flipV=0;fontFamily=Calibri;fontStyle=1;fillColor=#e1d5e7;strokeColor=#9673a6;fontSize=14;" vertex="1" parent="9KhxK2Ew6nsZcRuOPk-c-1">
          <mxGeometry x="332.5" y="99" width="65" height="42" as="geometry" />
        </mxCell>
        <mxCell id="9KhxK2Ew6nsZcRuOPk-c-19" value="LED&lt;div style=&quot;font-size: 14px;&quot;&gt;Task&lt;/div&gt;" style="rounded=0;whiteSpace=wrap;html=1;flipV=0;fontFamily=Calibri;fontStyle=1;fillColor=#e1d5e7;strokeColor=#9673a6;fontSize=14;" vertex="1" parent="9KhxK2Ew6nsZcRuOPk-c-1">
          <mxGeometry x="410" y="99" width="65" height="42" as="geometry" />
        </mxCell>
        <mxCell id="9KhxK2Ew6nsZcRuOPk-c-20" value="SWD&lt;div style=&quot;font-size: 14px;&quot;&gt;Task&lt;/div&gt;" style="rounded=0;whiteSpace=wrap;html=1;flipV=0;fontFamily=Calibri;fontStyle=1;fillColor=#e1d5e7;strokeColor=#9673a6;fontSize=14;" vertex="1" parent="9KhxK2Ew6nsZcRuOPk-c-1">
          <mxGeometry x="485" y="99" width="65" height="42" as="geometry" />
        </mxCell>
      </root>
    </mxGraphModel>
  </diagram>
</mxfile>
